<?xml version="1.0" standalone="no"?>
<!DOCTYPE svg PUBLIC "-//W3C//DTD SVG 20010904//EN"
 "http://www.w3.org/TR/2001/REC-SVG-20010904/DTD/svg10.dtd">
<svg version="1.0" xmlns="http://www.w3.org/2000/svg"
 width="512.000000pt" height="512.000000pt" viewBox="0 0 512.000000 512.000000"
 preserveAspectRatio="xMidYMid meet">
<metadata>
Created by potrace 1.14, written by Peter Selinger 2001-2017
</metadata>
<g transform="translate(0.000000,512.000000) scale(0.100000,-0.100000)"
fill="#000000" stroke="none">
<path d="M1233 5112 c-33 -10 -135 -87 -180 -135 -78 -84 -131 -180 -160 -290
-20 -76 -20 -223 -1 -293 l14 -50 -30 -2 c-45 -4 -89 -33 -108 -72 -23 -45
-25 -201 -3 -253 36 -86 115 -139 215 -143 30 -1 60 -3 65 -3 7 -1 10 -48 10
-125 l0 -124 -37 -11 c-20 -6 -50 -27 -67 -46 -44 -50 -49 -93 -21 -200 32
-124 46 -151 100 -188 21 -15 24 -25 26 -84 1 -66 10 -222 19 -333 12 -137 15
-180 20 -250 3 -41 7 -100 10 -130 2 -30 7 -95 11 -145 3 -49 6 -99 7 -111 1
-13 -26 -55 -72 -110 -113 -135 -142 -219 -119 -345 14 -78 46 -132 148 -254
125 -150 135 -176 115 -303 -19 -118 -11 -169 40 -281 75 -164 152 -403 171
-531 3 -19 7 -42 9 -50 2 -8 7 -37 11 -64 12 -93 57 -157 125 -176 21 -6 522
-10 1357 -10 1088 0 1328 2 1355 14 78 32 116 115 103 222 -21 161 -65 368
-96 449 -11 28 -38 45 -74 45 -14 0 -26 5 -26 12 0 6 -14 49 -30 94 l-31 83
21 21 c30 30 25 70 -21 140 -138 214 -339 328 -629 355 -41 4 -86 9 -100 10
-14 2 -37 3 -51 4 -24 1 -30 11 -67 103 -22 57 -48 137 -58 179 l-17 76 31 39
c48 60 68 116 75 205 3 35 12 52 42 84 42 44 115 152 115 170 0 6 8 20 18 31
52 56 120 181 129 239 5 28 22 41 182 138 98 59 184 115 193 124 38 44 29 117
-17 147 -24 16 -49 19 -192 30 -40 4 -106 9 -145 12 -40 4 -80 7 -88 7 -8 0
-20 6 -27 13 -10 10 7 39 84 146 161 222 183 257 183 289 0 43 -24 84 -61 102
-52 25 -45 28 -399 -155 -192 -99 -207 -105 -240 -96 -19 5 -36 11 -38 12 -1
2 -19 77 -38 167 -43 200 -43 198 -49 229 -37 187 -43 205 -78 235 -20 18 -49
32 -67 33 -39 3 -94 -22 -113 -52 -12 -18 -55 -191 -80 -326 -3 -14 -11 -47
-17 -75 -6 -27 -13 -61 -16 -75 -2 -14 -9 -50 -17 -80 -12 -51 -15 -55 -52
-66 -38 -10 -44 -8 -140 41 -55 29 -171 89 -258 134 -98 51 -170 82 -192 83
-44 2 -83 -25 -102 -69 -21 -52 -9 -77 136 -277 68 -94 125 -175 128 -181 8
-22 -22 -33 -107 -39 -47 -3 -116 -8 -155 -11 -38 -3 -92 -8 -118 -10 -26 -2
-59 -10 -72 -19 l-24 -16 -37 117 c-50 159 -50 166 -4 197 44 29 70 79 70 133
-1 55 -46 200 -77 248 -23 34 -27 51 -28 115 -1 41 0 80 2 85 2 6 34 11 72 12
76 1 130 23 171 70 48 54 54 74 58 183 3 90 1 111 -15 140 -19 35 -65 65 -114
75 l-27 5 15 42 c34 97 15 294 -39 408 -60 126 -191 266 -288 306 -30 12 -96
15 -127 6z m487 -2353 c27 -17 50 -33 50 -35 0 -3 -5 -2 -11 1 -6 4 -26 7 -45
7 -28 0 -37 5 -45 25 -16 42 -15 43 51 2z m201 -123 c39 -22 49 -34 60 -73 17
-61 45 -116 92 -181 21 -28 51 -78 68 -110 16 -32 53 -85 82 -118 51 -55 55
-64 61 -124 8 -73 32 -134 74 -188 26 -33 28 -41 20 -79 -5 -24 -12 -43 -16
-43 -10 0 -118 155 -186 268 -76 126 -179 332 -256 513 -34 79 -69 155 -77
169 l-16 25 24 -16 c13 -9 45 -28 70 -43z"/>
</g>
</svg>
